<svg viewBox="0 0 240 320" xmlns="http://www.w3.org/2000/svg">
  <defs>
    <!-- Body gradients -->
    <radialGradient id="bodyGrad" cx="38%" cy="35%" r="65%">
      <stop offset="0%" stop-color="#FFE0F0"/>
      <stop offset="30%" stop-color="#FFB8D9"/>
      <stop offset="65%" stop-color="#FF9ECF"/>
      <stop offset="100%" stop-color="#E8709B"/>
    </radialGradient>
    <radialGradient id="headGrad" cx="35%" cy="32%" r="68%">
      <stop offset="0%" stop-color="#FFE8F4"/>
      <stop offset="25%" stop-color="#FFB8D9"/>
      <stop offset="60%" stop-color="#FF9ECF"/>
      <stop offset="100%" stop-color="#E06090"/>
    </radialGradient>
    <radialGradient id="bellyGrad" cx="45%" cy="40%" r="60%">
      <stop offset="0%" stop-color="#FFF4F9"/>
      <stop offset="60%" stop-color="#FFD9EC"/>
      <stop offset="100%" stop-color="#FFC0DE"/>
    </radialGradient>
    <!-- Ear gradients -->
    <radialGradient id="earOuterGrad" cx="40%" cy="40%" r="60%">
      <stop offset="0%" stop-color="#FFB8D9"/>
      <stop offset="100%" stop-color="#D45A8A"/>
    </radialGradient>
    <!-- Horn gradient -->
    <linearGradient id="hornGrad" x1="0%" y1="0%" x2="100%" y2="100%">
      <stop offset="0%" stop-color="#FFFBE6"/>
      <stop offset="20%" stop-color="#FFE566"/>
      <stop offset="50%" stop-color="#FFD700"/>
      <stop offset="80%" stop-color="#FFA500"/>
      <stop offset="100%" stop-color="#CC8800"/>
    </linearGradient>
    <linearGradient id="hornStripe" x1="0%" y1="0%" x2="100%" y2="0%">
      <stop offset="0%" stop-color="#CC8800" stop-opacity="0.5"/>
      <stop offset="50%" stop-color="#CC8800" stop-opacity="0"/>
      <stop offset="100%" stop-color="#CC8800" stop-opacity="0.3"/>
    </linearGradient>
    <!-- Purple iris gradients -->
    <radialGradient id="irisGradL" cx="40%" cy="35%" r="65%">
      <stop offset="0%" stop-color="#C084FC"/>
      <stop offset="35%" stop-color="#9333EA"/>
      <stop offset="70%" stop-color="#7C3AED"/>
      <stop offset="100%" stop-color="#4C1D95"/>
    </radialGradient>
    <radialGradient id="irisGradR" cx="40%" cy="35%" r="65%">
      <stop offset="0%" stop-color="#C084FC"/>
      <stop offset="35%" stop-color="#9333EA"/>
      <stop offset="70%" stop-color="#7C3AED"/>
      <stop offset="100%" stop-color="#4C1D95"/>
    </radialGradient>
    <!-- Wing gradients -->
    <linearGradient id="wingLGrad" x1="0%" y1="0%" x2="100%" y2="100%">
      <stop offset="0%" stop-color="#FFB8D9" stop-opacity="0.85"/>
      <stop offset="30%" stop-color="#C084FC" stop-opacity="0.7"/>
      <stop offset="60%" stop-color="#67E8F9" stop-opacity="0.6"/>
      <stop offset="100%" stop-color="#A5F3FC" stop-opacity="0.4"/>
    </linearGradient>
    <linearGradient id="wingRGrad" x1="100%" y1="0%" x2="0%" y2="100%">
      <stop offset="0%" stop-color="#FFB8D9" stop-opacity="0.85"/>
      <stop offset="30%" stop-color="#C084FC" stop-opacity="0.7"/>
      <stop offset="60%" stop-color="#67E8F9" stop-opacity="0.6"/>
      <stop offset="100%" stop-color="#A5F3FC" stop-opacity="0.4"/>
    </linearGradient>
    <!-- Tail gradient -->
    <linearGradient id="tailGrad" x1="0%" y1="100%" x2="100%" y2="0%">
      <stop offset="0%" stop-color="#FF9ECF"/>
      <stop offset="25%" stop-color="#C084FC"/>
      <stop offset="50%" stop-color="#818CF8"/>
      <stop offset="75%" stop-color="#67E8F9"/>
      <stop offset="100%" stop-color="#FFD700"/>
    </linearGradient>
    <!-- Shadow / shade -->
    <radialGradient id="headShade" cx="50%" cy="65%" r="55%">
      <stop offset="0%" stop-color="#00000000"/>
      <stop offset="70%" stop-color="#8B3A7090"/>
      <stop offset="100%" stop-color="#5A1E4880"/>
    </radialGradient>
    <radialGradient id="bodyShade" cx="50%" cy="70%" r="50%">
      <stop offset="0%" stop-color="#00000000"/>
      <stop offset="65%" stop-color="#C03A8060"/>
      <stop offset="100%" stop-color="#8B1A5060"/>
    </radialGradient>
    <!-- Ground shadow -->
    <radialGradient id="groundShadow" cx="50%" cy="50%" r="50%">
      <stop offset="0%" stop-color="#C060A040"/>
      <stop offset="100%" stop-color="#C060A000"/>
    </radialGradient>
    <!-- Filters -->
    <filter id="softShadow" x="-40%" y="-40%" width="200%" height="200%">
      <feGaussianBlur in="SourceAlpha" stdDeviation="3"/>
      <feOffset dx="0" dy="4" result="offsetblur"/>
      <feComponentTransfer><feFuncA type="linear" slope="0.3"/></feComponentTransfer>
      <feMerge><feMergeNode/><feMergeNode in="SourceGraphic"/></feMerge>
    </filter>
    <filter id="glow" x="-80%" y="-80%" width="260%" height="260%">
      <feGaussianBlur stdDeviation="3.5" result="coloredBlur"/>
      <feMerge><feMergeNode in="coloredBlur"/><feMergeNode in="SourceGraphic"/></feMerge>
    </filter>
    <filter id="eyeGlow" x="-100%" y="-100%" width="300%" height="300%">
      <feGaussianBlur stdDeviation="4" result="blur"/>
      <feColorMatrix in="blur" type="matrix" values="0.6 0 0.8 0 0.1  0 0 0.8 0 0  0 0 1.2 0 0.1  0 0 0 1 0" result="purpleBlur"/>
      <feMerge><feMergeNode in="purpleBlur"/><feMergeNode in="SourceGraphic"/></feMerge>
    </filter>
    <filter id="wingShimmer" x="-20%" y="-20%" width="140%" height="140%">
      <feGaussianBlur stdDeviation="1.5" result="blur"/>
      <feMerge><feMergeNode in="blur"/><feMergeNode in="SourceGraphic"/></feMerge>
    </filter>
    <style>
      .character-body {
        animation: float3D 5s ease-in-out infinite;
        transform-origin: 120px 290px;
      }
      @keyframes float3D {
        0%, 100% { transform: translateY(0px) scale(1); }
        25%       { transform: translateY(-6px) scale(1.015); }
        50%       { transform: translateY(-11px) scale(1.025); }
        75%       { transform: translateY(-6px) scale(1.015); }
      }
      @keyframes blink {
        0%, 90%, 100% { transform: scaleY(1); }
        94%            { transform: scaleY(0.08); }
      }
      .eye-blink {
        animation: blink 4.5s ease-in-out infinite;
        transform-box: fill-box;
        transform-origin: center center;
      }
      .eye-blink-r {
        animation: blink 4.5s ease-in-out infinite;
        animation-delay: 0.05s;
        transform-box: fill-box;
        transform-origin: center center;
      }
      @keyframes twinkle {
        0%, 100% { opacity: 0.2; }
        50%       { opacity: 1; }
      }
      @keyframes magicPulse {
        0%, 100% { opacity: 0.2; }
        50%       { opacity: 0.55; }
      }
      .magic-twinkle { animation: twinkle 2.5s ease-in-out infinite; }
      .magic-pulse   { animation: magicPulse 3s ease-in-out infinite; }
      @keyframes wingFlutter {
        0%, 100% { transform: scaleX(1) skewY(0deg); }
        40%       { transform: scaleX(1.06) skewY(1.5deg); }
        60%       { transform: scaleX(0.96) skewY(-1deg); }
      }
      .wing-l { animation: wingFlutter 3.2s ease-in-out infinite; transform-origin: 95px 175px; transform-box: fill-box; }
      .wing-r { animation: wingFlutter 3.2s ease-in-out infinite 0.2s; transform-origin: 145px 175px; transform-box: fill-box; }
      @keyframes tailWag {
        0%, 100% { transform: rotate(0deg); }
        30%       { transform: rotate(8deg); }
        70%       { transform: rotate(-5deg); }
      }
      .tail-group { animation: tailWag 3.8s ease-in-out infinite; transform-origin: 165px 220px; transform-box: fill-box; }
      @media (prefers-reduced-motion: reduce) {
        .character-body, .eye-blink, .eye-blink-r, .magic-twinkle, .magic-pulse, .wing-l, .wing-r, .tail-group {
          animation: none;
        }
      }
    </style>
  </defs>

  <g class="character-body">

    <!-- ===== AMBIENT PARTICLES ===== -->
    <circle cx="22" cy="55" r="2.5" fill="#FFD700" class="magic-twinkle" opacity="0.7"/>
    <circle cx="215" cy="70" r="2" fill="#C084FC" class="magic-twinkle" opacity="0.6" style="animation-delay:0.6s"/>
    <circle cx="30" cy="200" r="1.8" fill="#67E8F9" class="magic-twinkle" opacity="0.5" style="animation-delay:1.1s"/>
    <circle cx="208" cy="185" r="2" fill="#FFB8D9" class="magic-twinkle" opacity="0.5" style="animation-delay:0.9s"/>
    <circle cx="50" cy="280" r="1.5" fill="#FFD700" class="magic-twinkle" opacity="0.45" style="animation-delay:1.7s"/>
    <circle cx="185" cy="270" r="1.5" fill="#C084FC" class="magic-twinkle" opacity="0.4" style="animation-delay:0.3s"/>

    <!-- Magic aura rings -->
    <circle cx="120" cy="165" r="80" fill="none" stroke="#FFD700" stroke-width="1.5" opacity="0.12" class="magic-pulse"/>
    <circle cx="120" cy="165" r="75" fill="none" stroke="#FFB8D9" stroke-width="1" opacity="0.15" class="magic-pulse" style="animation-delay:0.4s"/>

    <!-- ===== WINGS (behind body) ===== -->
    <!-- Left wing -->
    <g class="wing-l">
      <path d="M 95 175 C 55 140 20 110 30 80 C 38 60 70 75 85 100 C 72 85 60 80 62 95 C 65 115 80 135 95 155 Z"
            fill="url(#wingLGrad)" stroke="#C084FC" stroke-width="1" stroke-opacity="0.5" filter="url(#wingShimmer)" opacity="0.9"/>
      <path d="M 95 175 C 65 160 35 155 28 130 C 22 110 55 110 75 135 Z"
            fill="url(#wingLGrad)" stroke="#67E8F9" stroke-width="0.8" stroke-opacity="0.4" opacity="0.75"/>
      <!-- Wing veins -->
      <path d="M 95 165 C 70 135 45 115 38 90" stroke="#FFFFFF" stroke-width="0.8" fill="none" stroke-opacity="0.4"/>
      <path d="M 92 170 C 65 160 40 152 32 132" stroke="#FFFFFF" stroke-width="0.8" fill="none" stroke-opacity="0.35"/>
      <!-- Wing sparkle -->
      <circle cx="45" cy="108" r="2" fill="#FFFFFF" opacity="0.7" class="magic-twinkle" style="animation-delay:0.5s"/>
    </g>
    <!-- Right wing -->
    <g class="wing-r">
      <path d="M 145 175 C 185 140 220 110 210 80 C 202 60 170 75 155 100 C 168 85 180 80 178 95 C 175 115 160 135 145 155 Z"
            fill="url(#wingRGrad)" stroke="#C084FC" stroke-width="1" stroke-opacity="0.5" filter="url(#wingShimmer)" opacity="0.9"/>
      <path d="M 145 175 C 175 160 205 155 212 130 C 218 110 185 110 165 135 Z"
            fill="url(#wingRGrad)" stroke="#67E8F9" stroke-width="0.8" stroke-opacity="0.4" opacity="0.75"/>
      <!-- Wing veins -->
      <path d="M 145 165 C 170 135 195 115 202 90" stroke="#FFFFFF" stroke-width="0.8" fill="none" stroke-opacity="0.4"/>
      <path d="M 148 170 C 175 160 200 152 208 132" stroke="#FFFFFF" stroke-width="0.8" fill="none" stroke-opacity="0.35"/>
      <!-- Wing sparkle -->
      <circle cx="195" cy="108" r="2" fill="#FFFFFF" opacity="0.7" class="magic-twinkle" style="animation-delay:1.3s"/>
    </g>

    <!-- ===== TAIL ===== -->
    <g class="tail-group">
      <!-- Fluffy rainbow tail outer (widest, soft pink fluff base) -->
      <path d="M 160 236 C 196 224 224 198 230 162 C 235 132 216 108 204 116"
            stroke="#FF9ECF" stroke-width="46" fill="none" stroke-linecap="round" opacity="0.55" filter="url(#glow)"/>
      <!-- Rainbow color layer (thick fluffy plume) -->
      <path d="M 161 234 C 197 222 224 196 230 160 C 235 130 216 106 205 114"
            stroke="url(#tailGrad)" stroke-width="34" fill="none" stroke-linecap="round" opacity="0.95"/>
      <!-- Fluffy highlight on tail -->
      <path d="M 163 230 C 198 218 223 194 229 159"
            stroke="#FFFFFF" stroke-width="12" fill="none" stroke-opacity="0.28" stroke-linecap="round"/>
      <!-- Tail inner sheen -->
      <path d="M 163 228 C 198 216 223 192 229 158"
            stroke="#E0C0FF" stroke-width="5" fill="none" stroke-opacity="0.4" stroke-linecap="round"/>
      <!-- Tail tip fluffy tuft -->
      <circle cx="207" cy="114" r="20" fill="#C084FC" opacity="0.6" filter="url(#glow)"/>
      <circle cx="207" cy="114" r="14" fill="#818CF8" opacity="0.5"/>
      <circle cx="207" cy="114" r="8" fill="#FFFFFF" opacity="0.4"/>
      <!-- Tail sparkle star at tip -->
      <g transform="translate(207, 104)">
        <path d="M 0 -9 L 2.2 -2.2 L 9 0 L 2.2 2.2 L 0 9 L -2.2 2.2 L -9 0 L -2.2 -2.2 Z"
              fill="#FFD700" class="magic-twinkle" style="animation-delay:0.7s" filter="url(#glow)"/>
        <circle cx="0" cy="0" r="3.5" fill="#FFFFFF" opacity="0.95"/>
      </g>
    </g>

    <!-- ===== BODY (chubby torso) ===== -->
    <!-- Body shade -->
    <ellipse cx="121" cy="233" rx="44" ry="52" fill="url(#bodyShade)"/>
    <!-- Body main -->
    <ellipse cx="120" cy="228" rx="44" ry="52" fill="url(#bodyGrad)" filter="url(#softShadow)"/>
    <!-- Belly -->
    <ellipse cx="120" cy="222" rx="30" ry="24" fill="url(#bellyGrad)" opacity="0.9"/>
    <!-- Body highlight gloss -->
    <ellipse cx="104" cy="200" rx="20" ry="12" fill="#FFFFFF" opacity="0.3" transform="rotate(-15 104 200)"/>

    <!-- ===== SHORT ARMS ===== -->
    <!-- Left arm -->
    <ellipse cx="76" cy="240" rx="14" ry="22" fill="url(#bodyGrad)" transform="rotate(25 76 240)" filter="url(#softShadow)"/>
    <ellipse cx="74" cy="236" rx="10" ry="9" fill="url(#bellyGrad)" transform="rotate(25 74 236)" opacity="0.7"/>
    <!-- Right arm -->
    <ellipse cx="164" cy="240" rx="14" ry="22" fill="url(#bodyGrad)" transform="rotate(-25 164 240)" filter="url(#softShadow)"/>
    <ellipse cx="166" cy="236" rx="10" ry="9" fill="url(#bellyGrad)" transform="rotate(-25 166 236)" opacity="0.7"/>

    <!-- ===== SHORT LEGS ===== -->
    <!-- Left leg -->
    <ellipse cx="100" cy="280" rx="16" ry="22" fill="url(#bodyGrad)" filter="url(#softShadow)"/>
    <ellipse cx="99" cy="292" rx="14" ry="9" fill="url(#bellyGrad)" opacity="0.8"/>
    <!-- Right leg -->
    <ellipse cx="140" cy="280" rx="16" ry="22" fill="url(#bodyGrad)" filter="url(#softShadow)"/>
    <ellipse cx="141" cy="292" rx="14" ry="9" fill="url(#bellyGrad)" opacity="0.8"/>

    <!-- Ground shadow -->
    <ellipse cx="120" cy="308" rx="50" ry="8" fill="url(#groundShadow)"/>

    <!-- ===== HEAD ===== -->
    <!-- Head shade -->
    <circle cx="121" cy="135" r="65" fill="url(#headShade)"/>
    <!-- Head main -->
    <circle cx="120" cy="132" r="65" fill="url(#headGrad)" filter="url(#softShadow)"/>
    <!-- Head gloss highlight -->
    <ellipse cx="96" cy="100" rx="32" ry="20" fill="#FFFFFF" opacity="0.35" transform="rotate(-18 96 100)" filter="url(#glow)"/>
    <circle cx="85" cy="96" r="9" fill="#FFFFFF" opacity="0.5"/>
    <circle cx="93" cy="92" r="5" fill="#FFFFFF" opacity="0.3"/>

    <!-- ===== CAT EARS ===== -->
    <!-- Left ear: pointed triangular cat ear with curved base -->
    <!-- outer pink -->
    <path d="M 50 90 Q 40 62 56 30 Q 70 55 84 84 Q 68 82 50 90 Z"
          fill="#D45A8A" filter="url(#softShadow)"/>
    <path d="M 50 90 Q 40 62 56 30 Q 70 55 84 84 Q 68 82 50 90 Z"
          fill="url(#earOuterGrad)" opacity="0.85"/>
    <!-- inner light pink -->
    <path d="M 54 86 Q 46 63 57 36 Q 68 56 79 82 Q 66 80 54 86 Z"
          fill="#FFD9EC"/>
    <path d="M 57 82 Q 50 64 58 42 Q 67 59 75 79 Q 66 77 57 82 Z"
          fill="#FFB8D9" opacity="0.6"/>

    <!-- Right ear: mirror -->
    <path d="M 190 90 Q 200 62 184 30 Q 170 55 156 84 Q 172 82 190 90 Z"
          fill="#D45A8A" filter="url(#softShadow)"/>
    <path d="M 190 90 Q 200 62 184 30 Q 170 55 156 84 Q 172 82 190 90 Z"
          fill="url(#earOuterGrad)" opacity="0.85"/>
    <!-- inner light pink -->
    <path d="M 186 86 Q 194 63 183 36 Q 172 56 161 82 Q 174 80 186 86 Z"
          fill="#FFD9EC"/>
    <path d="M 183 82 Q 190 64 182 42 Q 173 59 165 79 Q 174 77 183 82 Z"
          fill="#FFB8D9" opacity="0.6"/>

    <!-- ===== GOLD SPIRAL HORN ===== -->
    <!-- Horn shadow -->
    <polygon points="123,25 113,82 130,82" fill="#8B5A00" opacity="0.25"/>
    <!-- Horn main body -->
    <polygon points="120,20 111,80 129,80" fill="url(#hornGrad)" filter="url(#softShadow)"/>
    <!-- Spiral dark stripes (diagonal bands = spiral look) -->
    <path d="M 111 75 C 114 68 119 62 120 54" stroke="#A06000" stroke-width="3" fill="none" stroke-opacity="0.5" stroke-linecap="round"/>
    <path d="M 113 65 C 116 57 120 50 120 42" stroke="#A06000" stroke-width="2.5" fill="none" stroke-opacity="0.45" stroke-linecap="round"/>
    <path d="M 115 52 C 117 44 120 38 120 30" stroke="#A06000" stroke-width="2" fill="none" stroke-opacity="0.4" stroke-linecap="round"/>
    <!-- Horn right-side shadow band -->
    <path d="M 126 78 C 127 68 127 55 123 40 C 121 32 120 25 120 20" stroke="#CC8800" stroke-width="4" fill="none" stroke-opacity="0.25" stroke-linecap="round"/>
    <!-- Horn highlight -->
    <polygon points="120,24 118,74 121,74" fill="#FFFFFF" opacity="0.88" filter="url(#glow)"/>
    <!-- Horn tip glow -->
    <circle cx="120" cy="20" r="5" fill="#FFFBE6" opacity="0.7" filter="url(#glow)" class="magic-twinkle" style="animation-delay:0.2s"/>
    <circle cx="120" cy="20" r="2.5" fill="#FFFFFF" opacity="0.95"/>

    <!-- ===== EYES ===== -->
    <!-- LEFT EYE -->
    <!-- Eye socket shadow -->
    <circle cx="92" cy="131" r="19" fill="#C03080" opacity="0.12"/>
    <!-- Eye white -->
    <circle cx="92" cy="129" r="17.5" fill="#FFFFFF" filter="url(#softShadow)"/>
    <!-- Iris group with blink -->
    <g class="eye-blink">
      <!-- Iris purple -->
      <circle cx="92" cy="131" r="13" fill="url(#irisGradL)" filter="url(#eyeGlow)"/>
      <!-- Inner pupil -->
      <circle cx="92" cy="132" r="7" fill="#1A0040"/>
      <!-- Sparkle highlights -->
      <circle cx="97" cy="124" r="5.5" fill="#FFFFFF" opacity="0.97"/>
      <circle cx="87" cy="122" r="2.5" fill="#FFFFFF" opacity="0.85"/>
      <circle cx="100" cy="129" r="2" fill="#FFFFFF" opacity="0.7"/>
      <!-- Tiny sparkle dots -->
      <circle cx="85" cy="138" r="1.5" fill="#E0C0FF" opacity="0.7"/>
    </g>
    <!-- Eye white rim highlight -->
    <ellipse cx="86" cy="119" rx="10" ry="6" fill="#FFFFFF" opacity="0.22" transform="rotate(-20 86 119)"/>

    <!-- RIGHT EYE -->
    <!-- Eye socket shadow -->
    <circle cx="148" cy="131" r="19" fill="#C03080" opacity="0.12"/>
    <!-- Eye white -->
    <circle cx="148" cy="129" r="17.5" fill="#FFFFFF" filter="url(#softShadow)"/>
    <!-- Iris group with blink -->
    <g class="eye-blink-r">
      <!-- Iris purple -->
      <circle cx="148" cy="131" r="13" fill="url(#irisGradR)" filter="url(#eyeGlow)"/>
      <!-- Inner pupil -->
      <circle cx="148" cy="132" r="7" fill="#1A0040"/>
      <!-- Sparkle highlights -->
      <circle cx="153" cy="124" r="5.5" fill="#FFFFFF" opacity="0.97"/>
      <circle cx="143" cy="122" r="2.5" fill="#FFFFFF" opacity="0.85"/>
      <circle cx="156" cy="129" r="2" fill="#FFFFFF" opacity="0.7"/>
      <!-- Tiny sparkle dots -->
      <circle cx="141" cy="138" r="1.5" fill="#E0C0FF" opacity="0.7"/>
    </g>
    <!-- Eye white rim highlight -->
    <ellipse cx="142" cy="119" rx="10" ry="6" fill="#FFFFFF" opacity="0.22" transform="rotate(-20 142 119)"/>

    <!-- ===== EYEBROWS (soft, raised, friendly) ===== -->
    <path d="M 80 109 Q 92 102 104 108" stroke="#E08AB0" stroke-width="2.4" fill="none" stroke-linecap="round" opacity="0.5"/>
    <path d="M 136 108 Q 148 102 160 109" stroke="#E08AB0" stroke-width="2.4" fill="none" stroke-linecap="round" opacity="0.5"/>

    <!-- ===== NOSE ===== -->
    <ellipse cx="120" cy="153" rx="7" ry="5" fill="#FF5FA0" filter="url(#softShadow)"/>
    <ellipse cx="118" cy="151" rx="3" ry="2" fill="#FFFFFF" opacity="0.4"/>

    <!-- ===== OPEN HAPPY SMILE ===== -->
    <!-- Mouth opening -->
    <path d="M 98 163 Q 120 182 142 163 L 142 170 Q 120 190 98 170 Z" fill="#FF4D8E" filter="url(#softShadow)"/>
    <!-- Teeth -->
    <path d="M 104 164 Q 120 164 136 164 L 136 170 Q 120 168 104 170 Z" fill="#FFFFFF" opacity="0.85"/>
    <!-- Smile curve -->
    <path d="M 98 163 Q 120 182 142 163" stroke="#FF4D8E" stroke-width="2.5" fill="none" stroke-linecap="round"/>
    <!-- Tongue hint -->
    <ellipse cx="120" cy="178" rx="8" ry="5" fill="#FF6EB0" opacity="0.5"/>

    <!-- ===== WHISKERS ===== -->
    <!-- Left whiskers -->
    <line x1="68" y1="143" x2="22" y2="136" stroke="#FFFFFF" stroke-width="1.5" stroke-linecap="round" opacity="0.75"/>
    <line x1="68" y1="152" x2="22" y2="155" stroke="#FFFFFF" stroke-width="1.5" stroke-linecap="round" opacity="0.75"/>
    <line x1="68" y1="161" x2="22" y2="172" stroke="#FFFFFF" stroke-width="1.5" stroke-linecap="round" opacity="0.7"/>
    <!-- Right whiskers -->
    <line x1="172" y1="143" x2="218" y2="136" stroke="#FFFFFF" stroke-width="1.5" stroke-linecap="round" opacity="0.75"/>
    <line x1="172" y1="152" x2="218" y2="155" stroke="#FFFFFF" stroke-width="1.5" stroke-linecap="round" opacity="0.75"/>
    <line x1="172" y1="161" x2="218" y2="172" stroke="#FFFFFF" stroke-width="1.5" stroke-linecap="round" opacity="0.7"/>

    <!-- ===== BLUSH CHEEKS ===== -->
    <ellipse cx="67" cy="152" rx="16" ry="10" fill="#FF69B4" opacity="0.38" filter="url(#glow)"/>
    <ellipse cx="173" cy="152" rx="16" ry="10" fill="#FF69B4" opacity="0.38" filter="url(#glow)"/>
    <!-- Blush inner sparkle dots -->
    <circle cx="62" cy="150" r="1.5" fill="#FFFFFF" opacity="0.5"/>
    <circle cx="68" cy="155" r="1" fill="#FFFFFF" opacity="0.4"/>
    <circle cx="174" cy="150" r="1.5" fill="#FFFFFF" opacity="0.5"/>
    <circle cx="178" cy="155" r="1" fill="#FFFFFF" opacity="0.4"/>

  </g>
</svg>
