<svg xmlns="http://www.w3.org/2000/svg" viewBox="0 0 128 128"><rect width="128" height="128" rx="28" fill="#fff8ef"/><path d="M38 42 26 24l24 8 14-2 14 2 24-8-12 18c8 7 12 16 12 28 0 23-17 38-38 38S26 93 26 70c0-12 4-21 12-28z" fill="#ffb870"/><circle cx="50" cy="68" r="5" fill="#4c3d5f"/><circle cx="78" cy="68" r="5" fill="#4c3d5f"/><path d="M64 74 58 82h12l-6-8z" fill="#f48aa8"/><path d="M50 88c4 5 10 7 14 7s10-2 14-7" fill="none" stroke="#4c3d5f" stroke-width="4" stroke-linecap="round"/></svg>
